<?xml version="1.0" encoding="UTF-8"?>
<svg version="1.1" xmlns="http://www.w3.org/2000/svg" width="67" height="65">
<path d="M0 0 C22.11 0 44.22 0 67 0 C67 21.45 67 42.9 67 65 C44.89 65 22.78 65 0 65 C0 43.55 0 22.1 0 0 Z " fill="#0F172A" transform="translate(0,0)"/>
<path d="M0 0 C1.09731445 0.42249023 1.09731445 0.42249023 2.21679688 0.85351562 C4.00123546 1.54163247 5.78223905 2.23864606 7.5625 2.9375 C8.42200859 26.19198248 8.42200859 26.19198248 0.3125 36.25 C-3.03601548 39.78534252 -6.79334855 43.27106919 -11.4375 44.9375 C-18.30630498 44.43596821 -23.80911315 38.93434577 -28.3125 34.0625 C-33.05096767 27.0941652 -33.87502795 20.13874443 -33.625 11.875 C-33.61146484 11.00939453 -33.59792969 10.14378906 -33.58398438 9.25195312 C-33.5490933 7.14685826 -33.49530665 5.04209026 -33.4375 2.9375 C-30.59417525 1.72279275 -27.73659004 0.54595462 -24.875 -0.625 C-24.07513672 -0.96724609 -23.27527344 -1.30949219 -22.45117188 -1.66210938 C-14.06372556 -5.05132238 -8.11756167 -3.20097812 0 0 Z " fill="#2C2945" transform="translate(45.4375,13.0625)"/>
<path d="M0 0 C1.09731445 0.42249023 1.09731445 0.42249023 2.21679688 0.85351562 C4.00123546 1.54163247 5.78223905 2.23864606 7.5625 2.9375 C8.42200859 26.19198248 8.42200859 26.19198248 0.3125 36.25 C-3.03601548 39.78534252 -6.79334855 43.27106919 -11.4375 44.9375 C-18.30630498 44.43596821 -23.80911315 38.93434577 -28.3125 34.0625 C-33.05096767 27.0941652 -33.87502795 20.13874443 -33.625 11.875 C-33.61146484 11.00939453 -33.59792969 10.14378906 -33.58398438 9.25195312 C-33.5490933 7.14685826 -33.49530665 5.04209026 -33.4375 2.9375 C-30.59417525 1.72279275 -27.73659004 0.54595462 -24.875 -0.625 C-24.07513672 -0.96724609 -23.27527344 -1.30949219 -22.45117188 -1.66210938 C-14.06372556 -5.05132238 -8.11756167 -3.20097812 0 0 Z M-23.3125 2.4375 C-25.04113281 3.13359375 -25.04113281 3.13359375 -26.8046875 3.84375 C-27.67351563 4.2046875 -28.54234375 4.565625 -29.4375 4.9375 C-30.85485687 19.42768528 -30.85485687 19.42768528 -25.3515625 32.16796875 C-24.71992188 32.75191406 -24.08828125 33.33585937 -23.4375 33.9375 C-22.70273437 34.63488281 -21.96796875 35.33226562 -21.2109375 36.05078125 C-17.1441653 39.83854194 -17.1441653 39.83854194 -11.9453125 40.84375 C-8.98333745 39.77337895 -7.21267185 38.41843742 -4.875 36.3125 C-3.75931641 35.33410156 -3.75931641 35.33410156 -2.62109375 34.3359375 C3.30764292 27.82387253 4.13299149 23.06082081 3.8125 14.5 C3.79445312 13.57767578 3.77640625 12.65535156 3.7578125 11.70507812 C3.71103601 9.44811267 3.64551871 7.19337388 3.5625 4.9375 C1.35817015 4.09200362 -0.84998533 3.26107186 -3.0625 2.4375 C-4.29226562 1.9734375 -5.52203125 1.509375 -6.7890625 1.03125 C-13.19003614 -0.88767143 -17.18531718 -0.06339095 -23.3125 2.4375 Z " fill="#B14961" transform="translate(45.4375,13.0625)"/>
<path d="M0 0 C0.66 0.66 1.32 1.32 2 2 C1.34 2 0.68 2 0 2 C0 2.66 0 3.32 0 4 C-1.093125 3.9175 -2.18625 3.835 -3.3125 3.75 C-8.19553693 3.71505877 -12.1941012 5.32576761 -16.6796875 7.125 C-19 8 -19 8 -21 8 C-20.67 15.26 -20.34 22.52 -20 30 C-20.99 30.33 -21.98 30.66 -23 31 C-25.24105897 25.61792923 -25.23693988 20.84254456 -25.125 15.125 C-25.11597656 14.24585938 -25.10695313 13.36671875 -25.09765625 12.4609375 C-25.07424577 10.3071729 -25.0383801 8.15354986 -25 6 C-22.15667525 4.78529275 -19.29909004 3.60845462 -16.4375 2.4375 C-15.63763672 2.09525391 -14.83777344 1.75300781 -14.01367188 1.40039062 C-8.95445846 -0.64394459 -5.4540934 -1.50917642 0 0 Z " fill="#566CC3" transform="translate(37,10)"/>
<path d="M0 0 C2.125 0.375 2.125 0.375 4 1 C2.41332422 4.90285767 -0.13350481 7.33520982 -3.125 10.25 C-4.03507812 11.14203125 -4.94515625 12.0340625 -5.8828125 12.953125 C-6.93082031 13.96632813 -6.93082031 13.96632813 -8 15 C-12.28359673 13.1144852 -14.15103592 10.64034299 -17 7 C-16.67 6.34 -16.34 5.68 -16 5 C-14.35 5.33 -12.7 5.66 -11 6 C-10.67 6.99 -10.34 7.98 -10 9 C-8.70756532 7.8758824 -7.41607925 6.75067408 -6.125 5.625 C-5.40570313 4.99851562 -4.68640625 4.37203125 -3.9453125 3.7265625 C-2.5923402 2.52573166 -1.2791655 1.2791655 0 0 Z " fill="#F6F6F7" transform="translate(39,28)"/>
<path d="M0 0 C1.08152344 0.37382812 2.16304687 0.74765625 3.27734375 1.1328125 C4.36144531 1.50148438 5.44554687 1.87015625 6.5625 2.25 C9.21484375 3.2578125 9.21484375 3.2578125 10.21484375 4.2578125 C10.28710877 6.11068752 10.29865595 7.96615128 10.27734375 9.8203125 C10.26832031 10.83222656 10.25929688 11.84414063 10.25 12.88671875 C10.23839844 13.66917969 10.22679687 14.45164062 10.21484375 15.2578125 C9.55484375 15.5878125 8.89484375 15.9178125 8.21484375 16.2578125 C8.21484375 12.9578125 8.21484375 9.6578125 8.21484375 6.2578125 C7.18359375 6.1546875 6.15234375 6.0515625 5.08984375 5.9453125 C1.2640043 5.26653453 -1.4188565 4.14622455 -4.78515625 2.2578125 C-4.78515625 1.5978125 -4.78515625 0.9378125 -4.78515625 0.2578125 C-2.78515625 -0.7421875 -2.78515625 -0.7421875 0 0 Z " fill="#905E95" transform="translate(41.78515625,11.7421875)"/>
<path d="M0 0 C0.66 0 1.32 0 2 0 C3.3671875 1.609375 3.3671875 1.609375 4.875 3.75 C7.05731197 6.76672537 9.25356742 9.46483146 12 12 C9.7734375 12.76171875 9.7734375 12.76171875 7 13 C4.7265625 11.26953125 4.7265625 11.26953125 2.625 8.8125 C1.91601562 8.01457031 1.20703125 7.21664062 0.4765625 6.39453125 C-1 4 -1 4 -0.7265625 1.69921875 C-0.48679687 1.13847656 -0.24703125 0.57773437 0 0 Z " fill="#8162A2" transform="translate(16,40)"/>
<path d="M0 0 C0.66 0.33 1.32 0.66 2 1 C1.2884375 1.6496875 1.2884375 1.6496875 0.5625 2.3125 C-1.23686957 4.02309613 -1.23686957 4.02309613 -2 7 C-4.125 7.75 -4.125 7.75 -7 8 C-10.3125 6.0625 -10.3125 6.0625 -13 4 C-12.67 3.34 -12.34 2.68 -12 2 C-10.14375 2.3403125 -10.14375 2.3403125 -8.25 2.6875 C-5.13146889 3.09666898 -4.31872101 3.18326458 -1.5 1.5625 C-1.005 1.046875 -0.51 0.53125 0 0 Z " fill="#B94F6B" transform="translate(38,50)"/>
<path d="M0 0 C2.97 1.98 2.97 1.98 6 4 C5.34 4.66 4.68 5.32 4 6 C2 5.8125 2 5.8125 0 5 C-0.66 4.01 -1.32 3.02 -2 2 C-1.34 1.34 -0.68 0.68 0 0 Z " fill="#965989" transform="translate(22,47)"/>
<path d="M0 0 C0.33 0 0.66 0 1 0 C1.06058594 0.60328125 1.12117188 1.2065625 1.18359375 1.828125 C1.26738281 2.62734375 1.35117187 3.4265625 1.4375 4.25 C1.51871094 5.03890625 1.59992187 5.8278125 1.68359375 6.640625 C1.92080786 8.9929904 1.92080786 8.9929904 2.72265625 11.109375 C2.85994141 12.04523437 2.85994141 12.04523437 3 13 C2.01 13.99 1.02 14.98 0 16 C0 10.72 0 5.44 0 0 Z " fill="#AA547A" transform="translate(49,18)"/>
<path d="M0 0 C1.65 0.33 3.3 0.66 5 1 C4.67 1.99 4.34 2.98 4 4 C2.68 3.67 1.36 3.34 0 3 C0 2.01 0 1.02 0 0 Z " fill="#A8547A" transform="translate(26,52)"/>
</svg>
